<svg width="47" height="39" viewBox="0 0 47 39" fill="none" xmlns="http://www.w3.org/2000/svg">
<path fill-rule="evenodd" clip-rule="evenodd" d="M27.0726 18.2198C27.0726 20.9812 24.834 23.2198 22.0726 23.2198C19.3112 23.2198 17.0726 20.9812 17.0726 18.2198C17.0726 15.4584 19.3112 13.2198 22.0726 13.2198C24.834 13.2198 27.0726 15.4584 27.0726 18.2198ZM25.9124 23.4649C24.8366 24.2539 23.509 24.7198 22.0726 24.7198C18.4828 24.7198 15.5726 21.8097 15.5726 18.2198C15.5726 14.63 18.4828 11.7198 22.0726 11.7198C25.6625 11.7198 28.5726 14.63 28.5726 18.2198C28.5726 19.6562 28.1067 20.9838 27.3177 22.0596L31.2816 26.0234C31.6696 26.4115 31.6696 27.0407 31.2816 27.4288C30.8935 27.8168 30.2643 27.8168 29.8762 27.4288L25.9124 23.4649Z" fill="#595B66"/>
</svg>
