<svg width="34" height="43" viewBox="0 0 34 43" fill="none" xmlns="http://www.w3.org/2000/svg">
<g clip-path="url(#clip0_1_18549)">
<path fill-rule="evenodd" clip-rule="evenodd" d="M12.5654 12.7198C10.3563 12.7198 8.56543 14.5107 8.56543 16.7198V17.7198C8.56543 19.9289 10.3563 21.7198 12.5654 21.7198C14.7745 21.7198 16.5654 19.9289 16.5654 17.7198V16.7198C16.5654 14.5107 14.7745 12.7198 12.5654 12.7198ZM10.0654 16.7198C10.0654 15.3391 11.1847 14.2198 12.5654 14.2198C13.9461 14.2198 15.0654 15.3391 15.0654 16.7198V17.7198C15.0654 19.1006 13.9461 20.2198 12.5654 20.2198C11.1847 20.2198 10.0654 19.1006 10.0654 17.7198V16.7198ZM6.06775 29.0884C6.53864 25.9775 9.58346 24.2198 12.5676 24.2198C15.5512 24.2198 18.5964 25.9775 19.0673 29.0884C19.07 29.1064 19.0679 29.117 19.0654 29.1246C19.0624 29.1335 19.0557 29.1467 19.0413 29.1618C19.0107 29.1939 18.9548 29.2237 18.8825 29.2237H6.25261C6.1803 29.2237 6.12441 29.1939 6.09381 29.1618C6.07937 29.1467 6.07269 29.1335 6.0697 29.1246C6.06717 29.117 6.06504 29.1063 6.06775 29.0884ZM12.5676 22.7198C9.13864 22.7198 5.2058 24.7602 4.58465 28.8639C4.42167 29.9406 5.3227 30.7237 6.25261 30.7237H18.8825C19.8124 30.7237 20.7134 29.9406 20.5504 28.8639C19.9292 24.7602 15.996 22.7198 12.5676 22.7198Z" fill="#1F2026"/>
</g>
<defs>
<clipPath id="clip0_1_18549">
<rect width="24" height="24" fill="white" transform="translate(0.56543 9.71985)"/>
</clipPath>
</defs>
</svg>
