<svg width="34" height="43" viewBox="0 0 34 43" fill="none" xmlns="http://www.w3.org/2000/svg">
<g opacity="0.87" clip-path="url(#clip0_1_18563)">
<path fill-rule="evenodd" clip-rule="evenodd" d="M9.67542 16.2198C9.67542 14.6076 10.9156 13.2198 12.6754 13.2198C14.4352 13.2198 15.6754 14.6076 15.6754 16.2198V17.2198H9.67542V16.2198ZM8.17542 18.7198V21.2198H9.67542V18.7198H15.6754V21.2198H17.1754V18.7198H19.1754V29.4698C19.1754 29.884 18.8396 30.2198 18.4254 30.2198H6.92542C6.51121 30.2198 6.17542 29.884 6.17542 29.4698V18.7198H8.17542ZM8.17542 17.2198V16.2198C8.17542 13.8321 10.0353 11.7198 12.6754 11.7198C15.3156 11.7198 17.1754 13.8321 17.1754 16.2198V17.2198H19.9254H20.6754V17.9698V29.4698C20.6754 30.7124 19.668 31.7198 18.4254 31.7198H6.92542C5.68278 31.7198 4.67542 30.7124 4.67542 29.4698V17.9698V17.2198H5.42542H8.17542Z" fill="#1F2026"/>
</g>
<defs>
<clipPath id="clip0_1_18563">
<rect width="24" height="24" fill="white" transform="translate(0.675415 9.71985)"/>
</clipPath>
</defs>
</svg>
